<?xml version="1.0" encoding="utf-8"?>
<svg xmlns="http://www.w3.org/2000/svg" xmlns:xlink="http://www.w3.org/1999/xlink" style="margin: auto; display: block; shape-rendering: auto;" width="197px" height="197px" viewBox="0 0 100 100" preserveAspectRatio="xMidYMid">
<g transform="rotate(0 50 50)">
  <rect x="47" y="27.5" rx="2.61" ry="2.61" width="6" height="9" fill="#1d0e0b">
    <animate attributeName="opacity" values="1;0" keyTimes="0;1" dur="0.970873786407767s" begin="-0.8737864077669902s" repeatCount="indefinite"></animate>
  </rect>
</g><g transform="rotate(36 50 50)">
  <rect x="47" y="27.5" rx="2.61" ry="2.61" width="6" height="9" fill="#1d0e0b">
    <animate attributeName="opacity" values="1;0" keyTimes="0;1" dur="0.970873786407767s" begin="-0.7766990291262136s" repeatCount="indefinite"></animate>
  </rect>
</g><g transform="rotate(72 50 50)">
  <rect x="47" y="27.5" rx="2.61" ry="2.61" width="6" height="9" fill="#1d0e0b">
    <animate attributeName="opacity" values="1;0" keyTimes="0;1" dur="0.970873786407767s" begin="-0.6796116504854368s" repeatCount="indefinite"></animate>
  </rect>
</g><g transform="rotate(108 50 50)">
  <rect x="47" y="27.5" rx="2.61" ry="2.61" width="6" height="9" fill="#1d0e0b">
    <animate attributeName="opacity" values="1;0" keyTimes="0;1" dur="0.970873786407767s" begin="-0.5825242718446602s" repeatCount="indefinite"></animate>
  </rect>
</g><g transform="rotate(144 50 50)">
  <rect x="47" y="27.5" rx="2.61" ry="2.61" width="6" height="9" fill="#1d0e0b">
    <animate attributeName="opacity" values="1;0" keyTimes="0;1" dur="0.970873786407767s" begin="-0.48543689320388345s" repeatCount="indefinite"></animate>
  </rect>
</g><g transform="rotate(180 50 50)">
  <rect x="47" y="27.5" rx="2.61" ry="2.61" width="6" height="9" fill="#1d0e0b">
    <animate attributeName="opacity" values="1;0" keyTimes="0;1" dur="0.970873786407767s" begin="-0.3883495145631068s" repeatCount="indefinite"></animate>
  </rect>
</g><g transform="rotate(216 50 50)">
  <rect x="47" y="27.5" rx="2.61" ry="2.61" width="6" height="9" fill="#1d0e0b">
    <animate attributeName="opacity" values="1;0" keyTimes="0;1" dur="0.970873786407767s" begin="-0.2912621359223301s" repeatCount="indefinite"></animate>
  </rect>
</g><g transform="rotate(252 50 50)">
  <rect x="47" y="27.5" rx="2.61" ry="2.61" width="6" height="9" fill="#1d0e0b">
    <animate attributeName="opacity" values="1;0" keyTimes="0;1" dur="0.970873786407767s" begin="-0.1941747572815534s" repeatCount="indefinite"></animate>
  </rect>
</g><g transform="rotate(288 50 50)">
  <rect x="47" y="27.5" rx="2.61" ry="2.61" width="6" height="9" fill="#1d0e0b">
    <animate attributeName="opacity" values="1;0" keyTimes="0;1" dur="0.970873786407767s" begin="-0.0970873786407767s" repeatCount="indefinite"></animate>
  </rect>
</g><g transform="rotate(324 50 50)">
  <rect x="47" y="27.5" rx="2.61" ry="2.61" width="6" height="9" fill="#1d0e0b">
    <animate attributeName="opacity" values="1;0" keyTimes="0;1" dur="0.970873786407767s" begin="0s" repeatCount="indefinite"></animate>
  </rect>
</g>
<!-- [ldio] generated by https://loading.io/ --></svg>