<svg xmlns="http://www.w3.org/2000/svg" xmlns:xlink="http://www.w3.org/1999/xlink" width="500" zoomAndPan="magnify" viewBox="0 0 375 374.999991" height="500" preserveAspectRatio="xMidYMid meet" version="1.0"><defs><g/><clipPath id="43d1c054c2"><path d="M 85.699219 8.199219 L 269.167969 8.199219 L 269.167969 191.671875 L 85.699219 191.671875 Z M 85.699219 8.199219 " clip-rule="nonzero"/></clipPath><clipPath id="eef35ab393"><path d="M 177.433594 8.199219 C 126.769531 8.199219 85.699219 49.273438 85.699219 99.9375 C 85.699219 150.601562 126.769531 191.671875 177.433594 191.671875 C 228.097656 191.671875 269.167969 150.601562 269.167969 99.9375 C 269.167969 49.273438 228.097656 8.199219 177.433594 8.199219 Z M 177.433594 8.199219 " clip-rule="nonzero"/></clipPath><clipPath id="131eab29b0"><path d="M 92 82 L 313 82 L 313 265.449219 L 92 265.449219 Z M 92 82 " clip-rule="nonzero"/></clipPath><clipPath id="6824a808fc"><path d="M 55 8.199219 L 239 8.199219 L 239 192 L 55 192 Z M 55 8.199219 " clip-rule="nonzero"/></clipPath></defs><g clip-path="url(#43d1c054c2)"><g clip-path="url(#eef35ab393)"><path fill="#ffde59" d="M 85.699219 8.199219 L 269.167969 8.199219 L 269.167969 191.671875 L 85.699219 191.671875 Z M 85.699219 8.199219 " fill-opacity="1" fill-rule="nonzero"/></g></g><g clip-path="url(#131eab29b0)"><path fill="#000000" d="M 169.996094 265.222656 C 150.121094 265.222656 130.242188 265.328125 110.355469 265.164062 C 102.683594 265.105469 96.144531 260.140625 93.964844 253.488281 C 91.523438 246.035156 93.46875 237.808594 99.960938 233.78125 C 103.632812 231.507812 108.5625 230.335938 112.941406 230.296875 C 148.773438 230.019531 184.59375 230.261719 220.425781 230.074219 C 248.34375 229.929688 270.402344 211.519531 275.925781 184.273438 C 282.714844 150.785156 256.984375 118.570312 222.617188 118.039062 C 197.886719 117.652344 173.144531 117.960938 148.414062 117.933594 C 140.800781 117.921875 135.085938 114.574219 131.597656 107.777344 C 128.480469 101.679688 128.488281 95.003906 133.175781 90.355469 C 136.945312 86.609375 142.765625 82.84375 147.746094 82.757812 C 175.226562 82.292969 202.808594 81.644531 230.191406 83.550781 C 269.269531 86.269531 301.769531 116.042969 310.234375 154.152344 C 322.828125 210.832031 280.167969 264.59375 221.996094 265.203125 C 204.675781 265.375 187.335938 265.222656 169.996094 265.222656 Z M 169.996094 265.222656 " fill-opacity="1" fill-rule="nonzero"/></g><g clip-path="url(#6824a808fc)"><path fill="#000000" d="M 181.464844 190.324219 C 165.308594 190.324219 148.957031 191.929688 133.042969 190.003906 C 94.121094 185.300781 60.542969 149.5625 56.445312 110.546875 C 52.078125 68.917969 76.507812 29.152344 114.625 14.761719 C 131.8125 8.277344 149.480469 8.226562 167.246094 8.914062 C 176.710938 9.28125 183.558594 17.441406 183.492188 26.492188 C 183.421875 35.53125 176.546875 43.257812 167.128906 44.070312 C 160.699219 44.621094 154.199219 44.273438 147.71875 44.320312 C 116.507812 44.554688 91.757812 67.949219 91.378906 99.027344 C 90.992188 130.96875 115.1875 154.566406 144.289062 155.789062 C 167.828125 156.773438 191.445312 156.117188 215.023438 156.214844 C 217.792969 156.222656 220.59375 156.203125 223.324219 156.570312 C 232.644531 157.828125 239.433594 165.84375 238.882812 174.730469 C 238.320312 183.761719 230.917969 191.300781 221.707031 191.484375 C 208.300781 191.746094 194.882812 191.550781 181.476562 191.550781 C 181.476562 191.144531 181.476562 190.730469 181.464844 190.324219 Z M 181.464844 190.324219 " fill-opacity="1" fill-rule="nonzero"/></g><g fill="#000000" fill-opacity="1"><g transform="translate(118.60467, 362.931203)"><g><path d="M 2.671875 -5.40625 C 1.765625 -6.519531 1.3125 -7.523438 1.3125 -8.421875 C 1.3125 -9.316406 2.0625 -10.5 3.5625 -11.96875 C 4.4375 -12.800781 5.363281 -13.21875 6.34375 -13.21875 C 7.320312 -13.21875 8.6875 -12.34375 10.4375 -10.59375 C 10.925781 -10 11.625 -9.429688 12.53125 -8.890625 C 13.445312 -8.347656 14.289062 -8.078125 15.0625 -8.078125 C 18.3125 -8.078125 19.9375 -9.40625 19.9375 -12.0625 C 19.9375 -12.875 19.488281 -13.550781 18.59375 -14.09375 C 17.707031 -14.632812 16.597656 -15.023438 15.265625 -15.265625 C 13.941406 -15.515625 12.507812 -15.910156 10.96875 -16.453125 C 9.425781 -16.992188 7.988281 -17.628906 6.65625 -18.359375 C 5.332031 -19.097656 4.222656 -20.257812 3.328125 -21.84375 C 2.441406 -23.4375 2 -25.351562 2 -27.59375 C 2 -30.675781 3.144531 -33.363281 5.4375 -35.65625 C 7.726562 -37.945312 10.847656 -39.09375 14.796875 -39.09375 C 16.890625 -39.09375 18.800781 -38.820312 20.53125 -38.28125 C 22.269531 -37.738281 23.472656 -37.1875 24.140625 -36.625 L 25.453125 -35.625 C 26.535156 -34.613281 27.078125 -33.753906 27.078125 -33.046875 C 27.078125 -32.347656 26.65625 -31.390625 25.8125 -30.171875 C 24.625 -28.421875 23.398438 -27.546875 22.140625 -27.546875 C 21.410156 -27.546875 20.5 -27.894531 19.40625 -28.59375 C 19.300781 -28.664062 19.097656 -28.84375 18.796875 -29.125 C 18.503906 -29.40625 18.238281 -29.628906 18 -29.796875 C 17.257812 -30.253906 16.320312 -30.484375 15.1875 -30.484375 C 14.050781 -30.484375 13.109375 -30.210938 12.359375 -29.671875 C 11.609375 -29.128906 11.234375 -28.375 11.234375 -27.40625 C 11.234375 -26.445312 11.675781 -25.671875 12.5625 -25.078125 C 13.457031 -24.484375 14.566406 -24.082031 15.890625 -23.875 C 17.222656 -23.664062 18.675781 -23.34375 20.25 -22.90625 C 21.820312 -22.46875 23.273438 -21.929688 24.609375 -21.296875 C 25.941406 -20.671875 27.050781 -19.578125 27.9375 -18.015625 C 28.832031 -16.460938 29.28125 -14.550781 29.28125 -12.28125 C 29.28125 -10.007812 28.820312 -8.003906 27.90625 -6.265625 C 27 -4.535156 25.8125 -3.195312 24.34375 -2.25 C 21.507812 -0.394531 18.484375 0.53125 15.265625 0.53125 C 13.617188 0.53125 12.0625 0.328125 10.59375 -0.078125 C 9.125 -0.484375 7.9375 -0.984375 7.03125 -1.578125 C 5.175781 -2.691406 3.878906 -3.773438 3.140625 -4.828125 Z M 2.671875 -5.40625 "/></g></g></g><g fill="#000000" fill-opacity="1"><g transform="translate(149.191547, 362.931203)"><g><path d="M 14.375 -0.109375 C 10.84375 -0.109375 7.910156 -1.441406 5.578125 -4.109375 C 3.253906 -6.785156 2.09375 -10.050781 2.09375 -13.90625 L 2.09375 -23.09375 C 2.09375 -23.925781 2.117188 -24.535156 2.171875 -24.921875 C 2.222656 -25.304688 2.375 -25.757812 2.625 -26.28125 C 3.113281 -27.226562 4.476562 -27.703125 6.71875 -27.703125 C 9.164062 -27.703125 10.597656 -27.035156 11.015625 -25.703125 C 11.222656 -25.148438 11.328125 -24.257812 11.328125 -23.03125 L 11.328125 -13.859375 C 11.328125 -12.421875 11.738281 -11.296875 12.5625 -10.484375 C 13.382812 -9.679688 14.484375 -9.28125 15.859375 -9.28125 C 17.242188 -9.28125 18.363281 -9.703125 19.21875 -10.546875 C 20.082031 -11.390625 20.515625 -12.492188 20.515625 -13.859375 L 20.515625 -23.140625 C 20.515625 -23.941406 20.539062 -24.539062 20.59375 -24.9375 C 20.644531 -25.34375 20.8125 -25.8125 21.09375 -26.34375 C 21.550781 -27.25 22.894531 -27.703125 25.125 -27.703125 C 27.332031 -27.703125 28.679688 -27.226562 29.171875 -26.28125 C 29.421875 -25.757812 29.570312 -25.296875 29.625 -24.890625 C 29.675781 -24.492188 29.703125 -23.894531 29.703125 -23.09375 L 29.703125 -4.515625 C 29.703125 -3.742188 29.675781 -3.15625 29.625 -2.75 C 29.570312 -2.351562 29.40625 -1.910156 29.125 -1.421875 C 28.59375 -0.503906 27.242188 -0.046875 25.078125 -0.046875 C 22.941406 -0.046875 21.628906 -0.46875 21.140625 -1.3125 C 20.796875 -1.90625 20.625 -2.625 20.625 -3.46875 C 20.476562 -3.21875 20.160156 -2.863281 19.671875 -2.40625 C 19.179688 -1.957031 18.710938 -1.578125 18.265625 -1.265625 C 17.066406 -0.492188 15.769531 -0.109375 14.375 -0.109375 Z M 14.375 -0.109375 "/></g></g></g><g fill="#000000" fill-opacity="1"><g transform="translate(180.985128, 362.931203)"><g><path d="M 11.125 -23.984375 C 12.769531 -26.460938 14.742188 -27.703125 17.046875 -27.703125 C 20.617188 -27.703125 23.28125 -26.179688 25.03125 -23.140625 C 25.414062 -23.660156 25.878906 -24.207031 26.421875 -24.78125 C 26.960938 -25.363281 27.828125 -25.992188 29.015625 -26.671875 C 30.203125 -27.359375 31.425781 -27.703125 32.6875 -27.703125 C 35.488281 -27.703125 37.832031 -26.625 39.71875 -24.46875 C 41.601562 -22.320312 42.546875 -18.765625 42.546875 -13.796875 L 42.546875 -4.625 C 42.546875 -3.8125 42.519531 -3.203125 42.46875 -2.796875 C 42.414062 -2.398438 42.25 -1.941406 41.96875 -1.421875 C 41.519531 -0.472656 40.175781 0 37.9375 0 C 35.726562 0 34.378906 -0.488281 33.890625 -1.46875 C 33.648438 -1.988281 33.503906 -2.453125 33.453125 -2.859375 C 33.398438 -3.265625 33.375 -3.867188 33.375 -4.671875 L 33.375 -13.859375 C 33.375 -16.898438 32.285156 -18.421875 30.109375 -18.421875 C 28.890625 -18.421875 28.0625 -18.015625 27.625 -17.203125 C 27.1875 -16.398438 26.96875 -15.265625 26.96875 -13.796875 L 26.96875 -4.625 C 26.96875 -3.78125 26.941406 -3.164062 26.890625 -2.78125 C 26.835938 -2.394531 26.671875 -1.941406 26.390625 -1.421875 C 25.898438 -0.472656 24.535156 0 22.296875 0 C 20.097656 0 18.753906 -0.488281 18.265625 -1.46875 C 18.015625 -1.988281 17.863281 -2.453125 17.8125 -2.859375 C 17.757812 -3.265625 17.734375 -3.867188 17.734375 -4.671875 L 17.734375 -13.859375 C 17.734375 -16.898438 16.648438 -18.421875 14.484375 -18.421875 C 12.378906 -18.421875 11.328125 -16.898438 11.328125 -13.859375 L 11.328125 -4.5625 C 11.328125 -3.757812 11.300781 -3.15625 11.25 -2.75 C 11.195312 -2.351562 11.03125 -1.890625 10.75 -1.359375 C 10.226562 -0.453125 8.863281 0 6.65625 0 C 4.457031 0 3.113281 -0.472656 2.625 -1.421875 C 2.375 -1.941406 2.222656 -2.394531 2.171875 -2.78125 C 2.117188 -3.164062 2.09375 -3.78125 2.09375 -4.625 L 2.09375 -23.09375 C 2.09375 -23.894531 2.117188 -24.492188 2.171875 -24.890625 C 2.222656 -25.296875 2.390625 -25.742188 2.671875 -26.234375 C 3.203125 -27.179688 4.445312 -27.65625 6.40625 -27.65625 C 8.363281 -27.65625 9.640625 -27.335938 10.234375 -26.703125 C 10.828125 -26.078125 11.125 -25.171875 11.125 -23.984375 Z M 11.125 -23.984375 "/></g></g></g><g fill="#000000" fill-opacity="1"><g transform="translate(225.632547, 362.931203)"><g><path d="M 15.890625 -9.234375 L 24.875 -9.234375 C 26.269531 -9.234375 27.273438 -9.054688 27.890625 -8.703125 C 28.503906 -8.359375 28.914062 -7.851562 29.125 -7.1875 C 29.332031 -6.519531 29.4375 -5.644531 29.4375 -4.5625 C 29.4375 -3.476562 29.332031 -2.601562 29.125 -1.9375 C 28.914062 -1.269531 28.546875 -0.804688 28.015625 -0.546875 C 27.492188 -0.285156 27.03125 -0.128906 26.625 -0.078125 C 26.226562 -0.0234375 25.625 0 24.8125 0 L 5.875 0 C 4.65625 0 3.585938 -0.453125 2.671875 -1.359375 C 1.765625 -2.273438 1.3125 -3.359375 1.3125 -4.609375 C 1.3125 -5.867188 1.765625 -6.945312 2.671875 -7.84375 C 3.585938 -8.738281 4.988281 -10.023438 6.875 -11.703125 C 8.757812 -13.378906 10.472656 -14.890625 12.015625 -16.234375 C 13.554688 -17.585938 14.394531 -18.332031 14.53125 -18.46875 L 7.140625 -18.46875 C 5.140625 -18.46875 3.878906 -18.800781 3.359375 -19.46875 C 2.765625 -20.238281 2.46875 -21.25 2.46875 -22.5 C 2.46875 -23.757812 2.550781 -24.695312 2.71875 -25.3125 C 2.894531 -25.925781 3.101562 -26.378906 3.34375 -26.671875 C 3.59375 -26.972656 3.945312 -27.210938 4.40625 -27.390625 C 5 -27.566406 5.910156 -27.65625 7.140625 -27.65625 L 24.1875 -27.65625 C 25.414062 -27.65625 26.484375 -27.21875 27.390625 -26.34375 C 28.296875 -25.46875 28.75 -24.375 28.75 -23.0625 C 28.75 -21.75 28.222656 -20.582031 27.171875 -19.5625 C 26.128906 -18.550781 22.367188 -15.109375 15.890625 -9.234375 Z M 15.890625 -9.234375 "/></g></g></g><g fill="#000000" fill-opacity="1"><g transform="translate(252.198193, 330.293062)"><g><path d="M 21.9375 -12.625 C 21.457031 -12.195312 20.882812 -11.78125 20.21875 -11.375 C 19.5625 -10.96875 18.875 -10.59375 18.15625 -10.25 C 17.445312 -9.90625 16.742188 -9.609375 16.046875 -9.359375 C 15.359375 -9.109375 14.742188 -8.914062 14.203125 -8.78125 C 13.648438 -8.613281 13.144531 -8.453125 12.6875 -8.296875 C 12.238281 -8.140625 11.8125 -7.960938 11.40625 -7.765625 C 11.007812 -7.578125 10.609375 -7.363281 10.203125 -7.125 C 9.796875 -6.894531 9.378906 -6.613281 8.953125 -6.28125 C 8.640625 -6.039062 8.382812 -5.847656 8.1875 -5.703125 C 7.988281 -5.566406 7.820312 -5.445312 7.6875 -5.34375 C 7.550781 -5.25 7.441406 -5.175781 7.359375 -5.125 C 7.273438 -5.082031 7.203125 -5.039062 7.140625 -5 L 8.421875 -4.890625 C 9.421875 -4.796875 10.382812 -4.691406 11.3125 -4.578125 C 12.238281 -4.472656 13.175781 -4.363281 14.125 -4.25 C 14.53125 -4.195312 14.769531 -4.164062 14.84375 -4.15625 C 14.914062 -4.144531 14.984375 -4.140625 15.046875 -4.140625 C 17.003906 -4.015625 18.375 -3.921875 19.15625 -3.859375 C 19.9375 -3.804688 20.328125 -3.640625 20.328125 -3.359375 C 20.328125 -3.253906 20.316406 -3.191406 20.296875 -3.171875 C 19.316406 -3.222656 18.367188 -3.3125 17.453125 -3.4375 C 16.546875 -3.570312 15.472656 -3.660156 14.234375 -3.703125 C 13.753906 -3.773438 13.195312 -3.84375 12.5625 -3.90625 C 11.9375 -3.96875 11.285156 -4.015625 10.609375 -4.046875 C 9.929688 -4.085938 9.253906 -4.117188 8.578125 -4.140625 C 7.898438 -4.160156 7.265625 -4.171875 6.671875 -4.171875 C 6.117188 -4.171875 5.628906 -4.164062 5.203125 -4.15625 C 4.773438 -4.144531 4.429688 -4.113281 4.171875 -4.0625 C 4.816406 -4.0625 5.578125 -4.050781 6.453125 -4.03125 C 7.335938 -4.007812 8.242188 -3.976562 9.171875 -3.9375 C 10.097656 -3.90625 11.003906 -3.859375 11.890625 -3.796875 C 12.785156 -3.734375 13.554688 -3.65625 14.203125 -3.5625 L 15.453125 -3.390625 C 16.273438 -3.265625 17.050781 -3.191406 17.78125 -3.171875 C 18.507812 -3.148438 19.300781 -3.09375 20.15625 -3 C 20.03125 -2.875 19.96875 -2.753906 19.96875 -2.640625 C 19.96875 -2.421875 20.117188 -2.320312 20.421875 -2.34375 C 20.722656 -2.375 21.144531 -2.351562 21.6875 -2.28125 C 22.164062 -2.09375 22.503906 -1.921875 22.703125 -1.765625 C 22.910156 -1.609375 23.015625 -1.457031 23.015625 -1.3125 C 23.015625 -1.175781 22.914062 -1.039062 22.71875 -0.90625 C 22.53125 -0.78125 22.296875 -0.679688 22.015625 -0.609375 L 21.125 -0.359375 C 20.144531 -0.523438 19.207031 -0.632812 18.3125 -0.6875 C 17.425781 -0.75 16.445312 -0.84375 15.375 -0.96875 L 14.453125 -1.0625 C 13.691406 -1.164062 12.941406 -1.25 12.203125 -1.3125 C 11.460938 -1.382812 10.703125 -1.457031 9.921875 -1.53125 L 6.140625 -1.8125 C 5.878906 -1.84375 5.59375 -1.863281 5.28125 -1.875 C 4.96875 -1.882812 4.644531 -1.890625 4.3125 -1.890625 L 3.671875 -1.890625 C 3.460938 -1.890625 3.238281 -1.878906 3 -1.859375 L 2.359375 -1.8125 L 2.359375 -4.5625 C 2.359375 -5.300781 2.535156 -5.878906 2.890625 -6.296875 C 3.242188 -6.710938 3.632812 -7.023438 4.0625 -7.234375 C 4.28125 -7.359375 4.492188 -7.457031 4.703125 -7.53125 C 4.660156 -7.53125 4.613281 -7.515625 4.5625 -7.484375 C 4.207031 -7.367188 3.859375 -7.195312 3.515625 -6.96875 C 3.171875 -6.75 2.875 -6.445312 2.625 -6.0625 C 2.375 -5.6875 2.25 -5.1875 2.25 -4.5625 L 2.21875 -1.75 L 5.671875 -1.75 L 7.84375 -1.640625 C 8.96875 -1.566406 10.054688 -1.46875 11.109375 -1.34375 C 12.171875 -1.226562 13.222656 -1.101562 14.265625 -0.96875 L 15.40625 -0.78125 C 16.3125 -0.6875 17.15625 -0.59375 17.9375 -0.5 C 18.726562 -0.40625 19.539062 -0.296875 20.375 -0.171875 C 20.039062 -0.109375 19.675781 -0.046875 19.28125 0.015625 C 18.882812 0.078125 18.453125 0.109375 17.984375 0.109375 C 17.523438 0.109375 17.117188 0.0820312 16.765625 0.03125 C 16.410156 -0.0078125 15.992188 -0.0546875 15.515625 -0.109375 L 14.375 -0.25 C 13.539062 -0.363281 12.742188 -0.460938 11.984375 -0.546875 C 11.222656 -0.628906 10.40625 -0.722656 9.53125 -0.828125 L 9.3125 -1.21875 L 6.421875 -1.21875 C 6.304688 -1.21875 6.175781 -1.207031 6.03125 -1.1875 C 5.882812 -1.175781 5.71875 -1.171875 5.53125 -1.171875 L 4.640625 -1.171875 C 4.328125 -1.171875 4.015625 -1.175781 3.703125 -1.1875 C 3.398438 -1.207031 3.070312 -1.238281 2.71875 -1.28125 L 1.71875 -1.421875 L 1.71875 -4.53125 C 1.71875 -5.3125 1.890625 -5.945312 2.234375 -6.4375 C 2.578125 -6.925781 2.972656 -7.3125 3.421875 -7.59375 C 3.878906 -7.882812 4.332031 -8.113281 4.78125 -8.28125 C 5.226562 -8.445312 5.570312 -8.597656 5.8125 -8.734375 L 6.640625 -9.375 C 7.585938 -10.09375 8.582031 -10.722656 9.625 -11.265625 C 10.675781 -11.816406 11.769531 -12.25 12.90625 -12.5625 L 13.453125 -12.703125 C 13.972656 -12.960938 14.53125 -13.1875 15.125 -13.375 C 15.71875 -13.5625 16.273438 -13.800781 16.796875 -14.09375 L 16.6875 -14.265625 C 16.09375 -14.003906 15.492188 -13.78125 14.890625 -13.59375 C 14.285156 -13.40625 13.769531 -13.203125 13.34375 -12.984375 L 12.8125 -12.84375 C 11.613281 -12.507812 10.472656 -12.054688 9.390625 -11.484375 C 8.316406 -10.910156 7.335938 -10.28125 6.453125 -9.59375 L 5.75 -8.984375 L 5.59375 -8.984375 C 5.53125 -8.984375 5.4375 -8.960938 5.3125 -8.921875 L 5.671875 -9.09375 C 6.953125 -10.1875 8.203125 -11.035156 9.421875 -11.640625 C 10.648438 -12.253906 11.875 -12.738281 13.09375 -13.09375 C 14 -13.425781 14.734375 -13.679688 15.296875 -13.859375 C 15.867188 -14.035156 16.40625 -14.253906 16.90625 -14.515625 C 15.976562 -14.734375 15.15625 -14.882812 14.4375 -14.96875 C 13.726562 -15.050781 13.066406 -15.09375 12.453125 -15.09375 C 12.140625 -15.09375 11.835938 -15.082031 11.546875 -15.0625 C 11.265625 -15.050781 10.984375 -15.035156 10.703125 -15.015625 C 10.535156 -15.035156 10.367188 -15.046875 10.203125 -15.046875 L 9.734375 -15.046875 C 8.898438 -15.046875 8.097656 -14.960938 7.328125 -14.796875 C 6.554688 -14.628906 5.828125 -14.40625 5.140625 -14.125 C 5.140625 -14.289062 5.070312 -14.425781 4.9375 -14.53125 C 4.8125 -14.644531 4.75 -14.785156 4.75 -14.953125 C 4.75 -15.085938 4.90625 -15.257812 5.21875 -15.46875 C 5.539062 -15.6875 6.144531 -15.894531 7.03125 -16.09375 L 6.953125 -16.4375 C 6.148438 -16.320312 5.445312 -16.21875 4.84375 -16.125 C 4.25 -16.03125 3.753906 -15.984375 3.359375 -15.984375 C 3.085938 -15.984375 2.882812 -15.992188 2.75 -16.015625 C 2.625 -16.035156 2.539062 -16.117188 2.5 -16.265625 C 2.5 -16.316406 2.507812 -16.363281 2.53125 -16.40625 C 2.550781 -16.457031 2.5625 -16.503906 2.5625 -16.546875 C 3.039062 -17.023438 3.625 -17.445312 4.3125 -17.8125 C 5 -18.1875 5.765625 -18.5 6.609375 -18.75 C 7.460938 -19 8.363281 -19.1875 9.3125 -19.3125 C 10.257812 -19.445312 11.234375 -19.515625 12.234375 -19.515625 C 12.972656 -19.515625 13.800781 -19.453125 14.71875 -19.328125 C 15.632812 -19.210938 16.648438 -19.0625 17.765625 -18.875 C 18.003906 -18.800781 18.21875 -18.734375 18.40625 -18.671875 C 18.59375 -18.609375 18.789062 -18.539062 19 -18.46875 C 19.21875 -18.40625 19.457031 -18.320312 19.71875 -18.21875 C 19.988281 -18.125 20.3125 -18.007812 20.6875 -17.875 C 20.664062 -17.894531 20.828125 -17.832031 21.171875 -17.6875 C 21.515625 -17.550781 21.863281 -17.289062 22.21875 -16.90625 Z M 1.421875 -4.53125 C 1.421875 -5.070312 1.484375 -5.519531 1.609375 -5.875 C 1.742188 -6.238281 1.929688 -6.550781 2.171875 -6.8125 C 1.984375 -6.53125 1.820312 -6.207031 1.6875 -5.84375 C 1.5625 -5.488281 1.5 -5.097656 1.5 -4.671875 L 1.5 -1.3125 L 2.609375 -1.109375 C 2.941406 -1.035156 3.273438 -0.984375 3.609375 -0.953125 C 3.941406 -0.929688 4.257812 -0.921875 4.5625 -0.921875 C 4.894531 -0.921875 5.191406 -0.925781 5.453125 -0.9375 C 5.710938 -0.957031 5.976562 -0.96875 6.25 -0.96875 L 8.984375 -0.921875 L 6.28125 -0.890625 L 5.890625 -0.890625 C 5.671875 -0.890625 5.4375 -0.882812 5.1875 -0.875 C 4.9375 -0.863281 4.671875 -0.859375 4.390625 -0.859375 C 4.128906 -0.859375 3.84375 -0.867188 3.53125 -0.890625 C 3.21875 -0.910156 2.894531 -0.957031 2.5625 -1.03125 L 1.421875 -1.25 Z M 5.03125 -8.734375 L 4.28125 -8.234375 C 4 -8.046875 3.660156 -7.859375 3.265625 -7.671875 C 2.867188 -7.484375 2.503906 -7.195312 2.171875 -6.8125 C 2.628906 -7.476562 3.175781 -7.972656 3.8125 -8.296875 C 4.457031 -8.617188 4.957031 -8.828125 5.3125 -8.921875 Z M 6.703125 -5.75 C 6.367188 -5.75 6.078125 -5.625 5.828125 -5.375 C 5.578125 -5.125 5.382812 -4.945312 5.25 -4.84375 L 5.3125 -4.8125 C 5.4375 -4.882812 5.664062 -5.015625 6 -5.203125 C 6.332031 -5.398438 6.6875 -5.601562 7.0625 -5.8125 C 7.445312 -6.03125 7.816406 -6.238281 8.171875 -6.4375 C 8.523438 -6.632812 8.796875 -6.796875 8.984375 -6.921875 C 8.867188 -6.847656 8.695312 -6.757812 8.46875 -6.65625 C 8.25 -6.550781 8.019531 -6.4375 7.78125 -6.3125 C 7.539062 -6.195312 7.316406 -6.082031 7.109375 -5.96875 C 6.910156 -5.863281 6.773438 -5.789062 6.703125 -5.75 Z M 5.34375 -7.78125 C 5.75 -7.914062 6.015625 -8.09375 6.140625 -8.3125 L 6.34375 -8.453125 C 6.769531 -8.785156 7.21875 -9.132812 7.6875 -9.5 C 8.15625 -9.875 8.632812 -10.210938 9.125 -10.515625 C 8.46875 -10.191406 7.863281 -9.785156 7.3125 -9.296875 C 6.769531 -8.804688 6.148438 -8.347656 5.453125 -7.921875 C 5.335938 -7.847656 5.207031 -7.773438 5.0625 -7.703125 C 5.15625 -7.722656 5.25 -7.75 5.34375 -7.78125 Z M 5.34375 -7.78125 "/></g></g></g><g fill="#000000" fill-opacity="1"><g transform="translate(273.594065, 311.035523)"><g><path d="M 21.9375 -12.625 C 21.457031 -12.195312 20.882812 -11.78125 20.21875 -11.375 C 19.5625 -10.96875 18.875 -10.59375 18.15625 -10.25 C 17.445312 -9.90625 16.742188 -9.609375 16.046875 -9.359375 C 15.359375 -9.109375 14.742188 -8.914062 14.203125 -8.78125 C 13.648438 -8.613281 13.144531 -8.453125 12.6875 -8.296875 C 12.238281 -8.140625 11.8125 -7.960938 11.40625 -7.765625 C 11.007812 -7.578125 10.609375 -7.363281 10.203125 -7.125 C 9.796875 -6.894531 9.378906 -6.613281 8.953125 -6.28125 C 8.640625 -6.039062 8.382812 -5.847656 8.1875 -5.703125 C 7.988281 -5.566406 7.820312 -5.445312 7.6875 -5.34375 C 7.550781 -5.25 7.441406 -5.175781 7.359375 -5.125 C 7.273438 -5.082031 7.203125 -5.039062 7.140625 -5 L 8.421875 -4.890625 C 9.421875 -4.796875 10.382812 -4.691406 11.3125 -4.578125 C 12.238281 -4.472656 13.175781 -4.363281 14.125 -4.25 C 14.53125 -4.195312 14.769531 -4.164062 14.84375 -4.15625 C 14.914062 -4.144531 14.984375 -4.140625 15.046875 -4.140625 C 17.003906 -4.015625 18.375 -3.921875 19.15625 -3.859375 C 19.9375 -3.804688 20.328125 -3.640625 20.328125 -3.359375 C 20.328125 -3.253906 20.316406 -3.191406 20.296875 -3.171875 C 19.316406 -3.222656 18.367188 -3.3125 17.453125 -3.4375 C 16.546875 -3.570312 15.472656 -3.660156 14.234375 -3.703125 C 13.753906 -3.773438 13.195312 -3.84375 12.5625 -3.90625 C 11.9375 -3.96875 11.285156 -4.015625 10.609375 -4.046875 C 9.929688 -4.085938 9.253906 -4.117188 8.578125 -4.140625 C 7.898438 -4.160156 7.265625 -4.171875 6.671875 -4.171875 C 6.117188 -4.171875 5.628906 -4.164062 5.203125 -4.15625 C 4.773438 -4.144531 4.429688 -4.113281 4.171875 -4.0625 C 4.816406 -4.0625 5.578125 -4.050781 6.453125 -4.03125 C 7.335938 -4.007812 8.242188 -3.976562 9.171875 -3.9375 C 10.097656 -3.90625 11.003906 -3.859375 11.890625 -3.796875 C 12.785156 -3.734375 13.554688 -3.65625 14.203125 -3.5625 L 15.453125 -3.390625 C 16.273438 -3.265625 17.050781 -3.191406 17.78125 -3.171875 C 18.507812 -3.148438 19.300781 -3.09375 20.15625 -3 C 20.03125 -2.875 19.96875 -2.753906 19.96875 -2.640625 C 19.96875 -2.421875 20.117188 -2.320312 20.421875 -2.34375 C 20.722656 -2.375 21.144531 -2.351562 21.6875 -2.28125 C 22.164062 -2.09375 22.503906 -1.921875 22.703125 -1.765625 C 22.910156 -1.609375 23.015625 -1.457031 23.015625 -1.3125 C 23.015625 -1.175781 22.914062 -1.039062 22.71875 -0.90625 C 22.53125 -0.78125 22.296875 -0.679688 22.015625 -0.609375 L 21.125 -0.359375 C 20.144531 -0.523438 19.207031 -0.632812 18.3125 -0.6875 C 17.425781 -0.75 16.445312 -0.84375 15.375 -0.96875 L 14.453125 -1.0625 C 13.691406 -1.164062 12.941406 -1.25 12.203125 -1.3125 C 11.460938 -1.382812 10.703125 -1.457031 9.921875 -1.53125 L 6.140625 -1.8125 C 5.878906 -1.84375 5.59375 -1.863281 5.28125 -1.875 C 4.96875 -1.882812 4.644531 -1.890625 4.3125 -1.890625 L 3.671875 -1.890625 C 3.460938 -1.890625 3.238281 -1.878906 3 -1.859375 L 2.359375 -1.8125 L 2.359375 -4.5625 C 2.359375 -5.300781 2.535156 -5.878906 2.890625 -6.296875 C 3.242188 -6.710938 3.632812 -7.023438 4.0625 -7.234375 C 4.28125 -7.359375 4.492188 -7.457031 4.703125 -7.53125 C 4.660156 -7.53125 4.613281 -7.515625 4.5625 -7.484375 C 4.207031 -7.367188 3.859375 -7.195312 3.515625 -6.96875 C 3.171875 -6.75 2.875 -6.445312 2.625 -6.0625 C 2.375 -5.6875 2.25 -5.1875 2.25 -4.5625 L 2.21875 -1.75 L 5.671875 -1.75 L 7.84375 -1.640625 C 8.96875 -1.566406 10.054688 -1.46875 11.109375 -1.34375 C 12.171875 -1.226562 13.222656 -1.101562 14.265625 -0.96875 L 15.40625 -0.78125 C 16.3125 -0.6875 17.15625 -0.59375 17.9375 -0.5 C 18.726562 -0.40625 19.539062 -0.296875 20.375 -0.171875 C 20.039062 -0.109375 19.675781 -0.046875 19.28125 0.015625 C 18.882812 0.078125 18.453125 0.109375 17.984375 0.109375 C 17.523438 0.109375 17.117188 0.0820312 16.765625 0.03125 C 16.410156 -0.0078125 15.992188 -0.0546875 15.515625 -0.109375 L 14.375 -0.25 C 13.539062 -0.363281 12.742188 -0.460938 11.984375 -0.546875 C 11.222656 -0.628906 10.40625 -0.722656 9.53125 -0.828125 L 9.3125 -1.21875 L 6.421875 -1.21875 C 6.304688 -1.21875 6.175781 -1.207031 6.03125 -1.1875 C 5.882812 -1.175781 5.71875 -1.171875 5.53125 -1.171875 L 4.640625 -1.171875 C 4.328125 -1.171875 4.015625 -1.175781 3.703125 -1.1875 C 3.398438 -1.207031 3.070312 -1.238281 2.71875 -1.28125 L 1.71875 -1.421875 L 1.71875 -4.53125 C 1.71875 -5.3125 1.890625 -5.945312 2.234375 -6.4375 C 2.578125 -6.925781 2.972656 -7.3125 3.421875 -7.59375 C 3.878906 -7.882812 4.332031 -8.113281 4.78125 -8.28125 C 5.226562 -8.445312 5.570312 -8.597656 5.8125 -8.734375 L 6.640625 -9.375 C 7.585938 -10.09375 8.582031 -10.722656 9.625 -11.265625 C 10.675781 -11.816406 11.769531 -12.25 12.90625 -12.5625 L 13.453125 -12.703125 C 13.972656 -12.960938 14.53125 -13.1875 15.125 -13.375 C 15.71875 -13.5625 16.273438 -13.800781 16.796875 -14.09375 L 16.6875 -14.265625 C 16.09375 -14.003906 15.492188 -13.78125 14.890625 -13.59375 C 14.285156 -13.40625 13.769531 -13.203125 13.34375 -12.984375 L 12.8125 -12.84375 C 11.613281 -12.507812 10.472656 -12.054688 9.390625 -11.484375 C 8.316406 -10.910156 7.335938 -10.28125 6.453125 -9.59375 L 5.75 -8.984375 L 5.59375 -8.984375 C 5.53125 -8.984375 5.4375 -8.960938 5.3125 -8.921875 L 5.671875 -9.09375 C 6.953125 -10.1875 8.203125 -11.035156 9.421875 -11.640625 C 10.648438 -12.253906 11.875 -12.738281 13.09375 -13.09375 C 14 -13.425781 14.734375 -13.679688 15.296875 -13.859375 C 15.867188 -14.035156 16.40625 -14.253906 16.90625 -14.515625 C 15.976562 -14.734375 15.15625 -14.882812 14.4375 -14.96875 C 13.726562 -15.050781 13.066406 -15.09375 12.453125 -15.09375 C 12.140625 -15.09375 11.835938 -15.082031 11.546875 -15.0625 C 11.265625 -15.050781 10.984375 -15.035156 10.703125 -15.015625 C 10.535156 -15.035156 10.367188 -15.046875 10.203125 -15.046875 L 9.734375 -15.046875 C 8.898438 -15.046875 8.097656 -14.960938 7.328125 -14.796875 C 6.554688 -14.628906 5.828125 -14.40625 5.140625 -14.125 C 5.140625 -14.289062 5.070312 -14.425781 4.9375 -14.53125 C 4.8125 -14.644531 4.75 -14.785156 4.75 -14.953125 C 4.75 -15.085938 4.90625 -15.257812 5.21875 -15.46875 C 5.539062 -15.6875 6.144531 -15.894531 7.03125 -16.09375 L 6.953125 -16.4375 C 6.148438 -16.320312 5.445312 -16.21875 4.84375 -16.125 C 4.25 -16.03125 3.753906 -15.984375 3.359375 -15.984375 C 3.085938 -15.984375 2.882812 -15.992188 2.75 -16.015625 C 2.625 -16.035156 2.539062 -16.117188 2.5 -16.265625 C 2.5 -16.316406 2.507812 -16.363281 2.53125 -16.40625 C 2.550781 -16.457031 2.5625 -16.503906 2.5625 -16.546875 C 3.039062 -17.023438 3.625 -17.445312 4.3125 -17.8125 C 5 -18.1875 5.765625 -18.5 6.609375 -18.75 C 7.460938 -19 8.363281 -19.1875 9.3125 -19.3125 C 10.257812 -19.445312 11.234375 -19.515625 12.234375 -19.515625 C 12.972656 -19.515625 13.800781 -19.453125 14.71875 -19.328125 C 15.632812 -19.210938 16.648438 -19.0625 17.765625 -18.875 C 18.003906 -18.800781 18.21875 -18.734375 18.40625 -18.671875 C 18.59375 -18.609375 18.789062 -18.539062 19 -18.46875 C 19.21875 -18.40625 19.457031 -18.320312 19.71875 -18.21875 C 19.988281 -18.125 20.3125 -18.007812 20.6875 -17.875 C 20.664062 -17.894531 20.828125 -17.832031 21.171875 -17.6875 C 21.515625 -17.550781 21.863281 -17.289062 22.21875 -16.90625 Z M 1.421875 -4.53125 C 1.421875 -5.070312 1.484375 -5.519531 1.609375 -5.875 C 1.742188 -6.238281 1.929688 -6.550781 2.171875 -6.8125 C 1.984375 -6.53125 1.820312 -6.207031 1.6875 -5.84375 C 1.5625 -5.488281 1.5 -5.097656 1.5 -4.671875 L 1.5 -1.3125 L 2.609375 -1.109375 C 2.941406 -1.035156 3.273438 -0.984375 3.609375 -0.953125 C 3.941406 -0.929688 4.257812 -0.921875 4.5625 -0.921875 C 4.894531 -0.921875 5.191406 -0.925781 5.453125 -0.9375 C 5.710938 -0.957031 5.976562 -0.96875 6.25 -0.96875 L 8.984375 -0.921875 L 6.28125 -0.890625 L 5.890625 -0.890625 C 5.671875 -0.890625 5.4375 -0.882812 5.1875 -0.875 C 4.9375 -0.863281 4.671875 -0.859375 4.390625 -0.859375 C 4.128906 -0.859375 3.84375 -0.867188 3.53125 -0.890625 C 3.21875 -0.910156 2.894531 -0.957031 2.5625 -1.03125 L 1.421875 -1.25 Z M 5.03125 -8.734375 L 4.28125 -8.234375 C 4 -8.046875 3.660156 -7.859375 3.265625 -7.671875 C 2.867188 -7.484375 2.503906 -7.195312 2.171875 -6.8125 C 2.628906 -7.476562 3.175781 -7.972656 3.8125 -8.296875 C 4.457031 -8.617188 4.957031 -8.828125 5.3125 -8.921875 Z M 6.703125 -5.75 C 6.367188 -5.75 6.078125 -5.625 5.828125 -5.375 C 5.578125 -5.125 5.382812 -4.945312 5.25 -4.84375 L 5.3125 -4.8125 C 5.4375 -4.882812 5.664062 -5.015625 6 -5.203125 C 6.332031 -5.398438 6.6875 -5.601562 7.0625 -5.8125 C 7.445312 -6.03125 7.816406 -6.238281 8.171875 -6.4375 C 8.523438 -6.632812 8.796875 -6.796875 8.984375 -6.921875 C 8.867188 -6.847656 8.695312 -6.757812 8.46875 -6.65625 C 8.25 -6.550781 8.019531 -6.4375 7.78125 -6.3125 C 7.539062 -6.195312 7.316406 -6.082031 7.109375 -5.96875 C 6.910156 -5.863281 6.773438 -5.789062 6.703125 -5.75 Z M 5.34375 -7.78125 C 5.75 -7.914062 6.015625 -8.09375 6.140625 -8.3125 L 6.34375 -8.453125 C 6.769531 -8.785156 7.21875 -9.132812 7.6875 -9.5 C 8.15625 -9.875 8.632812 -10.210938 9.125 -10.515625 C 8.46875 -10.191406 7.863281 -9.785156 7.3125 -9.296875 C 6.769531 -8.804688 6.148438 -8.347656 5.453125 -7.921875 C 5.335938 -7.847656 5.207031 -7.773438 5.0625 -7.703125 C 5.15625 -7.722656 5.25 -7.75 5.34375 -7.78125 Z M 5.34375 -7.78125 "/></g></g></g></svg>